<svg xmlns="http://www.w3.org/2000/svg" viewBox="0 0 40.000001 33.999999" enable-background="new 0 0 595.3 841.9" width="40" height="34"><path fill="#fff" stroke-width="20" stroke-miterlimit="10" d="M0 0v34h40V0H0zm1 29h38v4H1v-4z"/><path d="M24.335 15.167l-6.327-6.312-3.367 3.39-.71-.683 3.4-3.39-1.18-1.177c-.38-.378-.99-.378-1.36 0l-2.05 2.043c-.38.377-.38.986 0 1.364l8.19 8.17c.377.378 1.67 1.54 2.047 1.163l2.53-2.524c.38-.37-.79-1.66-1.163-2.04zm1.77 2.764l-2.415 2.41 3.86 1.48-1.446-3.88z" clip-rule="evenodd" fill="#7d7d7d" fill-rule="evenodd"/></svg>