<svg xmlns="http://www.w3.org/2000/svg" viewBox="0 0 40.000001 33.999999" enable-background="new 0 0 595.3 841.9" width="40" height="34"><path fill="#F8FBFD" stroke-width="20" stroke-miterlimit="10" d="M0 0v34h40V0H0zm1 29h38v4H1v-4z"/><path fill="#7d7d7d" d="M18.08 12.542c.822.82 1.916-.274 1.095-1.094l-4.923-4.923c-.82-.82-1.914.273-1.094 1.094zm.822-5.744l-6.564 6.564c-.766.766-.766 2.516 0 3.282l4.376 4.376c.766.766 2.516.766 3.282 0l6.564-6.564zm0 2.188l4.923 4.923H13.98z"/><path d="M27.107 15.55c2.735 2.735 3.282 6.017 0 6.017s-2.735-3.282 0-6.017z" fill-opacity=".5"/></svg>